<svg width="145" height="31" viewBox="0 0 145 31" fill="none" xmlns="http://www.w3.org/2000/svg">
<path d="M20.4247 10.72C20.4247 12.2133 20.0647 13.6133 19.3447 14.92C18.6514 16.2267 17.5447 17.28 16.0247 18.08C14.5314 18.88 12.638 19.28 10.3447 19.28H5.66469V30H0.0646877V2.08H10.3447C12.5047 2.08 14.3447 2.45333 15.8647 3.2C17.3847 3.94667 18.518 4.97333 19.2647 6.28C20.038 7.58667 20.4247 9.06667 20.4247 10.72ZM10.1047 14.76C11.6514 14.76 12.798 14.4133 13.5447 13.72C14.2914 13 14.6647 12 14.6647 10.72C14.6647 8 13.1447 6.64 10.1047 6.64H5.66469V14.76H10.1047ZM30.0006 11.28C30.7206 10.1067 31.654 9.18667 32.8006 8.52C33.974 7.85333 35.3073 7.52 36.8006 7.52V13.4H35.3206C33.5606 13.4 32.2273 13.8133 31.3206 14.64C30.4406 15.4667 30.0006 16.9067 30.0006 18.96V30H24.4006V7.84H30.0006V11.28ZM50.4125 30.36C48.2792 30.36 46.3592 29.8933 44.6525 28.96C42.9458 28 41.5992 26.6533 40.6125 24.92C39.6525 23.1867 39.1725 21.1867 39.1725 18.92C39.1725 16.6533 39.6658 14.6533 40.6525 12.92C41.6658 11.1867 43.0392 9.85333 44.7725 8.92C46.5058 7.96 48.4392 7.48 50.5725 7.48C52.7058 7.48 54.6392 7.96 56.3725 8.92C58.1058 9.85333 59.4658 11.1867 60.4525 12.92C61.4658 14.6533 61.9725 16.6533 61.9725 18.92C61.9725 21.1867 61.4525 23.1867 60.4125 24.92C59.3992 26.6533 58.0125 28 56.2525 28.96C54.5192 29.8933 52.5725 30.36 50.4125 30.36ZM50.4125 25.48C51.4258 25.48 52.3725 25.24 53.2525 24.76C54.1592 24.2533 54.8792 23.5067 55.4125 22.52C55.9458 21.5333 56.2125 20.3333 56.2125 18.92C56.2125 16.8133 55.6525 15.2 54.5325 14.08C53.4392 12.9333 52.0925 12.36 50.4925 12.36C48.8925 12.36 47.5458 12.9333 46.4525 14.08C45.3858 15.2 44.8525 16.8133 44.8525 18.92C44.8525 21.0267 45.3725 22.6533 46.4125 23.8C47.4792 24.92 48.8125 25.48 50.4125 25.48ZM81.2116 6.6V13.6H90.6116V18.04H81.2116V25.44H91.8116V30H75.6116V2.04H91.8116V6.6H81.2116ZM95.4606 18.84C95.4606 16.6 95.9006 14.6133 96.7806 12.88C97.6873 11.1467 98.914 9.81333 100.461 8.88C102.007 7.94667 103.727 7.48 105.621 7.48C107.061 7.48 108.434 7.8 109.741 8.44C111.047 9.05333 112.087 9.88 112.861 10.92V0.4H118.541V30H112.861V26.72C112.167 27.8133 111.194 28.6933 109.941 29.36C108.687 30.0267 107.234 30.36 105.581 30.36C103.714 30.36 102.007 29.88 100.461 28.92C98.914 27.96 97.6873 26.6133 96.7806 24.88C95.9006 23.12 95.4606 21.1067 95.4606 18.84ZM112.901 18.92C112.901 17.56 112.634 16.4 112.101 15.44C111.567 14.4533 110.847 13.7067 109.941 13.2C109.034 12.6667 108.061 12.4 107.021 12.4C105.981 12.4 105.021 12.6533 104.141 13.16C103.261 13.6667 102.541 14.4133 101.981 15.4C101.447 16.36 101.181 17.5067 101.181 18.84C101.181 20.1733 101.447 21.3467 101.981 22.36C102.541 23.3467 103.261 24.1067 104.141 24.64C105.047 25.1733 106.007 25.44 107.021 25.44C108.061 25.44 109.034 25.1867 109.941 24.68C110.847 24.1467 111.567 23.4 112.101 22.44C112.634 21.4533 112.901 20.28 112.901 18.92ZM144.93 7.84V30H139.29V27.2C138.57 28.16 137.623 28.92 136.45 29.48C135.303 30.0133 134.05 30.28 132.69 30.28C130.957 30.28 129.423 29.92 128.09 29.2C126.757 28.4533 125.703 27.3733 124.93 25.96C124.183 24.52 123.81 22.8133 123.81 20.84V7.84H129.41V20.04C129.41 21.8 129.85 23.16 130.73 24.12C131.61 25.0533 132.81 25.52 134.33 25.52C135.877 25.52 137.09 25.0533 137.97 24.12C138.85 23.16 139.29 21.8 139.29 20.04V7.84H144.93Z" fill="#4A4A4A"/>
</svg>
