<svg width="120" height="24" viewBox="0 0 120 24" fill="none" xmlns="http://www.w3.org/2000/svg">
<path d="M12 4.75L13.75 10.25H19.25L14.75 13.75L16.25 19.25L12 15.75L7.75 19.25L9.25 13.75L4.75 10.25H10.25L12 4.75Z" fill="#FBBF24" stroke="#F59E0B" stroke-width="1.5" stroke-linecap="round" stroke-linejoin="round"/>
<path d="M36 4.75L37.75 10.25H43.25L38.75 13.75L40.25 19.25L36 15.75L31.75 19.25L33.25 13.75L28.75 10.25H34.25L36 4.75Z" fill="#FBBF24" stroke="#F59E0B" stroke-width="1.5" stroke-linecap="round" stroke-linejoin="round"/>
<path d="M60 4.75L61.75 10.25H67.25L62.75 13.75L64.25 19.25L60 15.75L55.75 19.25L57.25 13.75L52.75 10.25H58.25L60 4.75Z" fill="#FBBF24" stroke="#F59E0B" stroke-width="1.5" stroke-linecap="round" stroke-linejoin="round"/>
<path d="M84 4.75L85.75 10.25H91.25L86.75 13.75L88.25 19.25L84 15.75L79.75 19.25L81.25 13.75L76.75 10.25H82.25L84 4.75Z" fill="#FBBF24" stroke="#F59E0B" stroke-width="1.5" stroke-linecap="round" stroke-linejoin="round"/>
<path d="M108 4.75L109.75 10.25H115.25L110.75 13.75L112.25 19.25L108 15.75L103.75 19.25L105.25 13.75L100.75 10.25H106.25L108 4.75Z" fill="#FEF3C7" stroke="#FCD34D" stroke-width="1.5" stroke-linecap="round" stroke-linejoin="round"/>
</svg>
